<?xml version="1.0" standalone="no"?>
<!DOCTYPE svg PUBLIC "-//W3C//DTD SVG 20010904//EN"
 "http://www.w3.org/TR/2001/REC-SVG-20010904/DTD/svg10.dtd">
<svg version="1.0" xmlns="http://www.w3.org/2000/svg"
 width="262.000000pt" height="262.000000pt" viewBox="0 0 262.000000 262.000000"
 preserveAspectRatio="xMidYMid meet">
<metadata>
Created by potrace 1.11, written by Peter Selinger 2001-2013
</metadata>
<g transform="translate(0.000000,262.000000) scale(0.100000,-0.100000)"
fill="#000000" stroke="none">
<path d="M688 2539 c-121 -29 -217 -85 -340 -198 -231 -213 -350 -495 -343
-811 3 -143 18 -196 97 -344 108 -199 231 -377 312 -449 12 -10 35 -31 52 -47
103 -93 209 -148 401 -206 137 -42 213 -74 257 -107 17 -12 19 -28 18 -165 l0
-152 64 0 64 0 0 185 0 185 33 2 c57 2 106 1 120 -5 10 -4 13 -37 11 -153 -2
-108 2 -158 11 -182 14 -32 15 -32 80 -32 l66 0 -2 198 c-1 110 -8 220 -14
250 l-13 53 37 15 c82 35 140 44 182 30 22 -8 42 -10 45 -5 4 8 0 65 -11 134
-3 17 -7 42 -9 57 -7 46 17 55 77 29 29 -12 60 -24 69 -26 31 -7 38 26 18 85
-25 70 -25 87 0 100 15 8 31 7 62 -4 71 -24 86 0 47 75 -27 54 -23 93 11 97
49 5 100 23 100 35 0 24 -29 53 -69 72 -22 10 -38 22 -35 26 5 9 134 49 165
52 26 2 25 35 -3 64 -31 33 -30 60 1 68 14 4 79 8 143 10 130 4 187 16 211 43
20 22 11 37 -36 57 -29 12 -64 14 -174 10 -76 -3 -144 -1 -152 4 -33 21 16 57
124 91 125 40 185 82 185 132 0 28 0 28 -55 23 -67 -7 -133 -29 -255 -88 -123
-58 -142 -64 -133 -40 16 42 55 92 104 134 132 109 164 170 136 252 -8 23 -14
27 -37 23 -64 -10 -112 -61 -122 -130 -2 -10 -21 -37 -44 -60 -22 -22 -63 -71
-92 -108 -29 -36 -69 -81 -90 -99 l-37 -33 -3 50 c-4 60 19 118 74 189 156
203 175 238 188 343 6 49 5 52 -16 52 -34 0 -119 -43 -155 -79 -56 -53 -94
-118 -160 -271 -108 -251 -182 -357 -296 -431 -54 -35 -151 -74 -208 -84 -13
-2 -37 -7 -54 -10 -41 -7 -241 -8 -290 0 -22 3 -53 8 -70 10 -57 8 -171 47
-250 87 -148 73 -262 175 -316 283 -66 133 -19 272 116 343 41 21 63 26 125
26 91 0 145 -22 211 -85 62 -60 95 -110 174 -269 67 -134 67 -134 81 -107 8
15 17 46 20 69 9 64 20 81 45 67 11 -6 30 -26 41 -45 22 -38 48 -56 65 -46 31
20 37 321 9 433 -41 159 -112 256 -228 309 -63 29 -83 34 -167 36 -67 2 -119
-3 -173 -17z"/>
<path d="M1175 1740 c-72 -16 -108 -53 -109 -115 -1 -62 40 -105 105 -109 38
-2 48 2 72 28 40 42 55 76 52 114 -5 58 -59 95 -120 82z"/>
</g>
</svg>
